<svg width="202" height="145" viewBox="0 0 202 145" fill="none" xmlns="http://www.w3.org/2000/svg">
<path d="M59.6108 41.5567C66.6374 41.5567 72.9689 44.4545 77.5249 49.1026C66.428 56.6401 59.1166 69.3618 59.1166 83.7584C59.1166 86.5054 59.4181 89.177 59.929 91.7816C59.8201 91.7816 59.7196 91.8151 59.6108 91.8151C45.7334 91.8151 34.4858 80.5675 34.4858 66.6901C34.4858 52.8127 45.7334 41.5567 59.6108 41.5567ZM142.875 41.875C135.832 41.875 129.483 44.7979 124.919 49.4627C135.748 57.0421 142.875 69.5544 142.875 83.75C142.875 86.5891 142.582 89.3613 142.037 92.0412C142.322 92.0496 142.59 92.125 142.875 92.125C156.752 92.125 168 80.8774 168 67C168 53.1226 156.752 41.875 142.875 41.875ZM101 108.875C114.877 108.875 126.125 97.6274 126.125 83.75C126.125 69.8726 114.877 58.625 101 58.625C87.1226 58.625 75.875 69.8726 75.875 83.75C75.875 97.6274 87.1226 108.875 101 108.875ZM101 125.625C86.3102 125.625 73.0694 134.528 68.0444 147.785C66.4029 152.115 68.5804 156.948 72.9102 158.589C77.2234 160.222 82.0725 158.053 83.714 153.723C86.2851 146.931 93.2364 142.383 101.008 142.383C108.78 142.383 115.732 146.939 118.303 153.723C119.567 157.065 122.758 159.133 126.133 159.133C127.122 159.133 128.127 158.958 129.098 158.597C133.42 156.956 135.597 152.123 133.964 147.794C128.939 134.544 115.698 125.633 101.008 125.633L101 125.625ZM131.988 110.525C127.574 111.915 125.12 116.614 126.51 121.027C127.9 125.432 132.616 127.878 137.012 126.504C138.88 125.918 140.848 125.625 142.875 125.625C150.647 125.625 157.598 130.181 160.169 136.965C161.434 140.306 164.625 142.375 168 142.375C168.988 142.375 169.993 142.199 170.965 141.839C175.286 140.198 177.464 135.365 175.831 131.035C170.806 117.786 157.565 108.875 142.875 108.875C139.14 108.875 135.48 109.428 131.988 110.525ZM59.125 108.875C44.4352 108.875 31.1944 117.778 26.1694 131.035C24.5279 135.365 26.7054 140.198 31.0352 141.839C32.0151 142.208 33.0117 142.375 34 142.375C37.3751 142.375 40.566 140.315 41.8306 136.965C44.4017 130.173 51.353 125.625 59.125 125.625C61.1517 125.625 63.1283 125.918 64.9875 126.504C69.3844 127.878 74.0995 125.432 75.4898 121.027C76.88 116.614 74.4261 111.915 70.0125 110.525C66.5201 109.428 62.8602 108.875 59.125 108.875ZM59.125 184.25H42.375C28.5227 184.25 17.25 172.977 17.25 159.125V142.375C17.25 137.744 13.498 134 8.875 134C4.252 134 0.5 137.744 0.5 142.375V159.125C0.5 182.215 19.2851 201 42.375 201H59.125C63.748 201 67.5 197.256 67.5 192.625C67.5 187.994 63.748 184.25 59.125 184.25ZM193.125 134C188.502 134 184.75 137.744 184.75 142.375V159.125C184.75 172.977 173.477 184.25 159.625 184.25H142.875C138.252 184.25 134.5 187.994 134.5 192.625C134.5 197.256 138.252 201 142.875 201H159.625C182.715 201 201.5 182.215 201.5 159.125V142.375C201.5 137.744 197.748 134 193.125 134ZM159.625 0H142.875C138.252 0 134.5 3.74363 134.5 8.375C134.5 13.0064 138.252 16.75 142.875 16.75H159.625C173.477 16.75 184.75 28.0227 184.75 41.875V58.625C184.75 63.2564 188.502 67 193.125 67C197.748 67 201.5 63.2564 201.5 58.625V41.875C201.5 18.7851 182.715 0 159.625 0ZM8.875 67C13.498 67 17.25 63.2564 17.25 58.625V41.875C17.25 28.0227 28.5227 16.75 42.375 16.75H59.125C63.748 16.75 67.5 13.0064 67.5 8.375C67.5 3.74363 63.748 0 59.125 0H42.375C19.2851 0 0.5 18.7851 0.5 41.875V58.625C0.5 63.2564 4.252 67 8.875 67Z" fill="white" fill-opacity="0.1"/>
</svg>
