<svg width="199" height="145" viewBox="0 0 199 145" fill="none" xmlns="http://www.w3.org/2000/svg">
<path d="M194.766 160.247L186.609 155.54C187.999 151.378 188.938 147.006 188.938 142.375C188.938 137.744 188.008 133.372 186.609 129.21L194.766 124.503C198.778 122.191 200.152 117.066 197.832 113.062C195.512 109.051 190.378 107.677 186.391 109.997L178.243 114.704C172.338 108.054 164.474 103.188 155.438 101.354V92.1334C155.438 87.502 151.694 83.7584 147.062 83.7584C142.431 83.7584 138.688 87.502 138.688 92.1334V101.354C129.651 103.197 121.787 108.063 115.882 114.704L107.733 109.997C103.714 107.686 98.6047 109.068 96.2933 113.062C93.9818 117.074 95.3552 122.191 99.3585 124.503L107.516 129.21C106.125 133.372 105.188 137.744 105.188 142.375C105.188 147.006 106.117 151.378 107.516 155.54L99.3585 160.247C95.3552 162.559 93.9818 167.684 96.2933 171.688C98.6215 175.724 103.797 177.039 107.733 174.753L115.882 170.046C121.787 176.696 129.651 181.562 138.688 183.396V192.617C138.688 197.248 142.431 200.992 147.062 200.992C151.694 200.992 155.438 197.248 155.438 192.617V183.396C164.474 181.553 172.338 176.687 178.243 170.046L186.391 174.753C190.328 177.039 195.504 175.724 197.832 171.688C200.143 167.676 198.77 162.559 194.766 160.247ZM147.062 167.5C133.21 167.5 121.938 156.227 121.938 142.375C121.938 128.523 133.21 117.25 147.062 117.25C160.915 117.25 172.188 128.523 172.188 142.375C172.188 156.227 160.915 167.5 147.062 167.5ZM40.3734 180.398C25.357 176.327 17.25 169.786 17.25 165.708V104.336C29.1928 111.756 46.6881 116.546 67.2404 117.183H67.5C72.0058 117.183 75.7242 113.599 75.8666 109.059C76.009 104.436 72.3742 100.575 67.7513 100.433C36.4622 99.4782 17.2416 87.636 17.2416 79.5625V62.4691C30.0972 70.4589 49.3597 75.375 71.6791 75.375C93.9985 75.375 113.261 70.4505 126.117 62.4691V62.8125C126.117 67.4439 129.86 71.1875 134.492 71.1875C139.123 71.1875 142.867 67.4439 142.867 62.8125V37.6875C142.875 16.2056 112.273 0 71.6875 0C31.1022 0 0.5 16.2056 0.5 37.6875V165.708C0.5 179.208 13.4394 190.456 36.0016 196.561C40.3399 197.776 45.0801 195.171 46.2778 190.674C47.4837 186.21 44.8372 181.604 40.3734 180.398ZM71.6875 16.75C104.92 16.75 126.125 29.145 126.125 37.6875C126.125 46.23 104.92 58.625 71.6875 58.625C38.4555 58.625 17.25 46.23 17.25 37.6875C17.25 29.145 38.4555 16.75 71.6875 16.75ZM86.6452 150.524C89.9199 153.798 89.9199 159.091 86.6452 162.366C83.3706 165.641 78.0776 165.641 74.803 162.366L72.0644 159.628C72.9019 171.947 75.2636 180.406 79.9034 188.429C82.2149 192.441 80.8498 197.558 76.8465 199.869C72.9186 202.173 67.7345 200.858 65.4062 196.821C58.4801 184.836 55.976 172.575 55.2306 158.706L51.3446 162.592C48.07 165.867 42.777 165.867 39.5024 162.592C36.2277 159.318 36.2277 154.025 39.5024 150.75L51.353 138.908C57.6678 132.585 68.706 132.568 75.0375 138.908L86.6452 150.524Z" fill="white" fill-opacity="0.1"/>
</svg>
