<svg width="202" height="145" viewBox="0 0 202 145" fill="none" xmlns="http://www.w3.org/2000/svg">
<g clip-path="url(#clip0_1845_2329)">
<path d="M159.625 33.5H150.412C148.469 24.0481 143.326 15.5553 135.85 9.45301C128.375 3.35075 119.025 0.0121816 109.375 0L92.625 0C82.9753 0.0121816 73.6248 3.35075 66.1495 9.45301C58.6743 15.5553 53.5313 24.0481 51.5875 33.5H42.375C31.2731 33.5133 20.6298 37.9294 12.7796 45.7796C4.92939 53.6298 0.513298 64.2731 0.5 75.375L0.5 159.125C0.513298 170.227 4.92939 180.87 12.7796 188.72C20.6298 196.571 31.2731 200.987 42.375 201H159.625C170.727 200.987 181.37 196.571 189.22 188.72C197.071 180.87 201.487 170.227 201.5 159.125V75.375C201.487 64.2731 197.071 53.6298 189.22 45.7796C181.37 37.9294 170.727 33.5133 159.625 33.5ZM92.625 16.75H109.375C114.553 16.7715 119.598 18.3922 123.819 21.3905C128.041 24.3888 131.233 28.6181 132.959 33.5H69.041C70.7669 28.6181 73.9591 24.3888 78.1806 21.3905C82.4022 18.3922 87.4471 16.7715 92.625 16.75ZM42.375 50.25H159.625C166.289 50.25 172.679 52.8971 177.391 57.6089C182.103 62.3208 184.75 68.7114 184.75 75.375V100.5H17.25V75.375C17.25 68.7114 19.8971 62.3208 24.6089 57.6089C29.3208 52.8971 35.7114 50.25 42.375 50.25ZM159.625 184.25H42.375C35.7114 184.25 29.3208 181.603 24.6089 176.891C19.8971 172.179 17.25 165.789 17.25 159.125V117.25H92.625V125.625C92.625 127.846 93.5074 129.976 95.078 131.547C96.6486 133.118 98.7788 134 101 134C103.221 134 105.351 133.118 106.922 131.547C108.493 129.976 109.375 127.846 109.375 125.625V117.25H184.75V159.125C184.75 165.789 182.103 172.179 177.391 176.891C172.679 181.603 166.289 184.25 159.625 184.25Z" fill="white" fill-opacity="0.1"/>
</g>
<defs>
<clipPath id="clip0_1845_2329">
<rect width="201" height="201" fill="white" transform="translate(0.5)"/>
</clipPath>
</defs>
</svg>
