<svg width="202" height="145" viewBox="0 0 202 145" fill="none" xmlns="http://www.w3.org/2000/svg">
<g clip-path="url(#clip0_1845_2359)">
<path d="M193.125 25.125H176.375V8.375C176.375 6.15381 175.493 4.0236 173.922 2.45298C172.351 0.882364 170.221 0 168 0C165.779 0 163.649 0.882364 162.078 2.45298C160.507 4.0236 159.625 6.15381 159.625 8.375V25.125H142.875C140.654 25.125 138.524 26.0074 136.953 27.578C135.382 29.1486 134.5 31.2788 134.5 33.5C134.5 35.7212 135.382 37.8514 136.953 39.422C138.524 40.9926 140.654 41.875 142.875 41.875H159.625V58.625C159.625 60.8462 160.507 62.9764 162.078 64.547C163.649 66.1176 165.779 67 168 67C170.221 67 172.351 66.1176 173.922 64.547C175.493 62.9764 176.375 60.8462 176.375 58.625V41.875H193.125C195.346 41.875 197.476 40.9926 199.047 39.422C200.618 37.8514 201.5 35.7212 201.5 33.5C201.5 31.2788 200.618 29.1486 199.047 27.578C197.476 26.0074 195.346 25.125 193.125 25.125Z" fill="white" fill-opacity="0.1"/>
<path d="M182.832 81.4552C181.749 81.2526 180.637 81.2669 179.56 81.4974C178.482 81.7278 177.462 82.1698 176.556 82.7977C175.651 83.4256 174.88 84.2269 174.286 85.1552C173.693 86.0835 173.29 87.1203 173.1 88.2055C172.056 94.0023 169.008 99.2478 164.489 103.026C159.97 106.804 154.268 108.874 148.377 108.875H45.8758L38.0033 41.875H109.375C111.596 41.875 113.726 40.9926 115.297 39.422C116.868 37.8514 117.75 35.7212 117.75 33.5C117.75 31.2788 116.868 29.1486 115.297 27.578C113.726 26.0074 111.596 25.125 109.375 25.125H36.0268L35.675 22.177C34.9533 16.0683 32.0156 10.4365 27.4188 6.34912C22.822 2.2617 16.8855 0.00262001 10.7343 0L8.875 0C6.65381 0 4.5236 0.882364 2.95298 2.45298C1.38236 4.0236 0.5 6.15381 0.5 8.375C0.5 10.5962 1.38236 12.7264 2.95298 14.297C4.5236 15.8676 6.65381 16.75 8.875 16.75H10.7343C12.7856 16.7503 14.7654 17.5034 16.2984 18.8665C17.8313 20.2296 18.8106 22.1079 19.0506 24.1451L30.5746 122.133C31.771 132.323 36.6672 141.72 44.334 148.539C52.0007 155.358 61.9043 159.125 72.1649 159.125H159.625C161.846 159.125 163.976 158.243 165.547 156.672C167.118 155.101 168 152.971 168 150.75C168 148.529 167.118 146.399 165.547 144.828C163.976 143.257 161.846 142.375 159.625 142.375H72.1649C66.9683 142.376 61.8993 140.766 57.6561 137.766C53.4129 134.766 50.2042 130.524 48.472 125.625H148.377C158.194 125.626 167.699 122.178 175.232 115.883C182.765 109.589 187.847 100.848 189.591 91.187C189.786 90.1042 189.767 88.9934 189.533 87.9182C189.299 86.843 188.856 85.8244 188.228 84.9206C187.6 84.0169 186.801 83.2456 185.875 82.651C184.949 82.0564 183.915 81.6501 182.832 81.4552Z" fill="white" fill-opacity="0.1"/>
</g>
<defs>
<clipPath id="clip0_1845_2359">
<rect width="201" height="201" fill="white" transform="translate(0.5)"/>
</clipPath>
</defs>
</svg>
