<svg width="168" height="145" viewBox="0 0 168 145" fill="none" xmlns="http://www.w3.org/2000/svg">
<path d="M150.573 46.364L121.394 17.1688C115.962 11.7094 109.501 7.38115 102.385 4.43423C95.2693 1.48731 87.6399 -0.0198131 79.9381 9.92719e-06H42.125C31.0231 0.0133082 20.3798 4.4294 12.5296 12.2796C4.67939 20.1298 0.263298 30.7731 0.25 41.875V159.125C0.263298 170.227 4.67939 180.87 12.5296 188.72C20.3798 196.571 31.0231 200.987 42.125 201H125.875C136.977 200.987 147.62 196.571 155.47 188.72C163.321 180.87 167.737 170.227 167.75 159.125V87.8119C167.771 80.1104 166.263 72.4814 163.315 65.3667C160.366 58.252 156.035 51.793 150.573 46.364ZM138.731 58.2063C141.288 60.8372 143.487 63.794 145.271 67H109.125C106.904 67 104.774 66.1176 103.203 64.547C101.632 62.9764 100.75 60.8462 100.75 58.625V22.4785C103.957 24.2617 106.916 26.458 109.552 29.011L138.731 58.2063ZM151 159.125C151 165.789 148.353 172.179 143.641 176.891C138.929 181.603 132.539 184.25 125.875 184.25H42.125C35.4614 184.25 29.0708 181.603 24.3589 176.891C19.6471 172.179 17 165.789 17 159.125V41.875C17 35.2114 19.6471 28.8208 24.3589 24.109C29.0708 19.3971 35.4614 16.75 42.125 16.75H79.9381C81.3116 16.75 82.6432 17.018 84 17.1436V58.625C84 65.2886 86.6471 71.6792 91.3589 76.3911C96.0708 81.1029 102.461 83.75 109.125 83.75H150.606C150.732 85.1068 151 86.43 151 87.8119V159.125Z" fill="white" fill-opacity="0.1"/>
</svg>
