<svg width="150" height="150" viewBox="0 0 150 150" fill="none" xmlns="http://www.w3.org/2000/svg">
<rect width="150" height="150" rx="24" fill="white" fill-opacity="0.1"/>
<g clip-path="url(#clip0_1813_1105)">
<path d="M109.521 96.9965L106.518 95.2637C107.03 93.7313 107.375 92.1217 107.375 90.4167C107.375 88.7116 107.033 87.1021 106.518 85.5697L109.521 83.8368C110.998 82.9858 111.504 81.0988 110.649 79.625C109.795 78.1481 107.905 77.6424 106.438 78.4965L103.438 80.2293C101.264 77.7812 98.3686 75.9897 95.0417 75.3145V71.9198C95.0417 70.2147 93.6634 68.8364 91.9583 68.8364C90.2533 68.8364 88.875 70.2147 88.875 71.9198V75.3145C85.5481 75.9928 82.6528 77.7842 80.4791 80.2293L77.479 78.4965C75.999 77.6455 74.1182 78.1542 73.2672 79.625C72.4162 81.1019 72.9218 82.9858 74.3957 83.8368L77.3988 85.5697C76.887 87.1021 76.5417 88.7116 76.5417 90.4167C76.5417 92.1217 76.8839 93.7313 77.3988 95.2637L74.3957 96.9965C72.9218 97.8475 72.4162 99.7345 73.2672 101.208C74.1243 102.694 76.0298 103.179 77.479 102.337L80.4791 100.604C82.6528 103.052 85.5481 104.844 88.875 105.519V108.914C88.875 110.619 90.2533 111.997 91.9583 111.997C93.6634 111.997 95.0417 110.619 95.0417 108.914V105.519C98.3686 104.84 101.264 103.049 103.438 100.604L106.438 102.337C107.887 103.179 109.792 102.694 110.649 101.208C111.5 99.7314 110.995 97.8475 109.521 96.9965ZM91.9583 99.6667C86.8585 99.6667 82.7083 95.5165 82.7083 90.4167C82.7083 85.3168 86.8585 81.1667 91.9583 81.1667C97.0582 81.1667 101.208 85.3168 101.208 90.4167C101.208 95.5165 97.0582 99.6667 91.9583 99.6667ZM52.6798 104.415C47.1513 102.917 44.1667 100.508 44.1667 99.0068V76.4122C48.5635 79.144 55.0046 80.9077 62.5711 81.142H62.6667C64.3255 81.142 65.6945 79.8223 65.7469 78.1512C65.7993 76.4492 64.4612 75.0277 62.7592 74.9753C51.2398 74.6238 44.1636 70.264 44.1636 67.2917V60.9986C48.8965 63.9401 55.9882 65.75 64.2052 65.75C72.4223 65.75 79.514 63.937 84.2469 60.9986V61.125C84.2469 62.8301 85.6252 64.2083 87.3302 64.2083C89.0353 64.2083 90.4136 62.8301 90.4136 61.125V51.875C90.4167 43.9662 79.1502 38 64.2083 38C49.2665 38 38 43.9662 38 51.875V99.0068C38 103.977 42.7637 108.118 51.0702 110.366C52.6674 110.813 54.4126 109.854 54.8535 108.198C55.2975 106.555 54.3232 104.859 52.6798 104.415ZM64.2083 44.1667C76.443 44.1667 84.25 48.73 84.25 51.875C84.25 55.02 76.443 59.5833 64.2083 59.5833C51.9737 59.5833 44.1667 55.02 44.1667 51.875C44.1667 48.73 51.9737 44.1667 64.2083 44.1667ZM69.7152 93.4167C70.9207 94.6223 70.9207 96.571 69.7152 97.7766C68.5096 98.9822 66.5609 98.9822 65.3553 97.7766L64.3471 96.7683C64.6554 101.304 65.5249 104.418 67.2331 107.372C68.0841 108.849 67.5815 110.733 66.1077 111.584C64.6616 112.432 62.753 111.948 61.8958 110.461C59.3459 106.049 58.424 101.535 58.1496 96.4292L56.7189 97.8598C55.5133 99.0654 53.5647 99.0654 52.3591 97.8598C51.1535 96.6542 51.1535 94.7056 52.3591 93.5L56.722 89.1402C59.0468 86.8122 63.1107 86.8061 65.4417 89.1402L69.7152 93.4167Z" fill="white"/>
</g>
<defs>
<clipPath id="clip0_1813_1105">
<rect width="74" height="74" fill="white" transform="translate(38 38)"/>
</clipPath>
</defs>
</svg>
