<svg width="151" height="150" viewBox="0 0 151 150" fill="none" xmlns="http://www.w3.org/2000/svg">
<rect x="0.166504" width="150" height="150" rx="24" fill="white" fill-opacity="0.1"/>
<g clip-path="url(#clip0_1813_1112)">
<path d="M99.4996 38.5H72.1246C70.4426 38.5 69.083 39.8627 69.083 41.5417C69.083 43.2207 70.4426 44.5833 72.1246 44.5833H99.4996C100.044 44.5833 100.57 44.6563 101.075 44.7902L39.5575 106.308C38.3682 107.497 38.3682 109.42 39.5575 110.609C40.1506 111.202 40.9293 111.5 41.708 111.5C42.4866 111.5 43.2653 111.202 43.8584 110.609L105.376 49.0911C105.51 49.593 105.583 50.1222 105.583 50.6667V78.0417C105.583 79.7207 106.943 81.0833 108.625 81.0833C110.307 81.0833 111.666 79.7207 111.666 78.0417V50.6667C111.666 43.9567 106.21 38.5 99.4996 38.5Z" fill="white"/>
</g>
<defs>
<clipPath id="clip0_1813_1112">
<rect width="73" height="73" fill="white" transform="translate(38.6665 38.5)"/>
</clipPath>
</defs>
</svg>
