<svg width="150" height="150" viewBox="0 0 150 150" fill="none" xmlns="http://www.w3.org/2000/svg">
<rect width="150" height="150" rx="24" fill="white" fill-opacity="0.1"/>
<g clip-path="url(#clip0_1813_1083)">
<path d="M96.5833 38H78.0833C73.9961 38.0049 70.0776 39.6307 67.1875 42.5208C64.2974 45.411 62.6716 49.3294 62.6667 53.4167V53.725C59.1869 54.4406 56.0602 56.3341 53.8135 59.0861C51.5669 61.8382 50.3378 65.2807 50.3333 68.8333V69.1417C46.8535 69.8573 43.7268 71.7507 41.4802 74.5028C39.2336 77.2549 38.0045 80.6974 38 84.25V96.5833C38.0049 100.671 39.6307 104.589 42.5208 107.479C45.411 110.369 49.3294 111.995 53.4167 112H71.9167C76.0039 111.995 79.9224 110.369 82.8125 107.479C85.7026 104.589 87.3284 100.671 87.3333 96.5833V96.275C90.8131 95.5594 93.9398 93.6659 96.1865 90.9139C98.4331 88.1618 99.6622 84.7193 99.6667 81.1667V80.8583C103.146 80.1427 106.273 78.2493 108.52 75.4972C110.766 72.7451 111.996 69.3026 112 65.75V53.4167C111.995 49.3294 110.369 45.411 107.479 42.5208C104.589 39.6307 100.671 38.0049 96.5833 38ZM44.1667 84.25C44.1667 81.7967 45.1412 79.444 46.8759 77.7093C48.6106 75.9745 50.9634 75 53.4167 75H71.9167C73.593 75.0045 75.2363 75.4663 76.6696 76.3356C78.1029 77.205 79.2718 78.4489 80.0505 79.9333L69.3976 90.6109L67.933 89.134C66.8412 88.034 65.3739 87.3875 63.8253 87.324C62.2768 87.2605 60.7615 87.7848 59.5833 88.7917L45.3352 101.002C44.5773 99.6519 44.1752 98.1314 44.1667 96.5833V84.25ZM81.1667 96.5833C81.1667 99.0366 80.1921 101.389 78.4574 103.124C76.7227 104.859 74.3699 105.833 71.9167 105.833H53.4167C52.2344 105.831 51.0638 105.599 49.9695 105.152L63.5547 93.5L65.0223 94.9831C66.1788 96.1392 67.747 96.7886 69.3822 96.7886C71.0173 96.7886 72.5856 96.1392 73.742 94.9831L81.1667 87.543V96.5833ZM93.5 81.1667C93.4921 83.073 92.8954 84.9303 91.7916 86.4845C90.6877 88.0387 89.1306 89.2139 87.3333 89.8493V84.25C87.3284 80.1627 85.7026 76.2443 82.8125 73.3542C79.9224 70.4641 76.0039 68.8382 71.9167 68.8333H56.5C56.5 66.3801 57.4746 64.0273 59.2093 62.2926C60.944 60.5579 63.2967 59.5833 65.75 59.5833H84.25C86.7033 59.5833 89.056 60.5579 90.7907 62.2926C92.5254 64.0273 93.5 66.3801 93.5 68.8333V81.1667ZM105.833 65.75C105.825 67.6563 105.229 69.5136 104.125 71.0678C103.021 72.622 101.464 73.7972 99.6667 74.4327V68.8333C99.6618 64.7461 98.0359 60.8276 95.1458 57.9375C92.2557 55.0474 88.3372 53.4216 84.25 53.4167H68.8333C68.8333 50.9634 69.8079 48.6106 71.5426 46.8759C73.2773 45.1412 75.6301 44.1667 78.0833 44.1667H96.5833C99.0366 44.1667 101.389 45.1412 103.124 46.8759C104.859 48.6106 105.833 50.9634 105.833 53.4167V65.75ZM50.3333 84.25C50.3333 83.6402 50.5142 83.044 50.853 82.537C51.1918 82.0299 51.6733 81.6347 52.2367 81.4014C52.8001 81.168 53.4201 81.1069 54.0182 81.2259C54.6163 81.3449 55.1657 81.6385 55.5969 82.0698C56.0281 82.501 56.3218 83.0504 56.4408 83.6485C56.5597 84.2466 56.4987 84.8665 56.2653 85.4299C56.0319 85.9933 55.6367 86.4749 55.1297 86.8137C54.6226 87.1525 54.0265 87.3333 53.4167 87.3333C52.5989 87.3333 51.8147 87.0085 51.2364 86.4302C50.6582 85.852 50.3333 85.0677 50.3333 84.25Z" fill="white"/>
</g>
<defs>
<clipPath id="clip0_1813_1083">
<rect width="74" height="74" fill="white" transform="translate(38 38)"/>
</clipPath>
</defs>
</svg>
