<svg width="151" height="150" viewBox="0 0 151 150" fill="none" xmlns="http://www.w3.org/2000/svg">
<rect x="0.333252" width="150" height="150" rx="24" fill="white" fill-opacity="0.1"/>
<g clip-path="url(#clip0_1813_1090)">
<path d="M96.9166 44.1667H53.7499C45.2399 44.1667 38.3333 51.0734 38.3333 59.5834V90.4168C38.3333 98.9268 45.2399 105.833 53.7499 105.833H96.9166C105.427 105.833 112.333 98.9268 112.333 90.4168V59.5834C112.333 51.0734 105.427 44.1667 96.9166 44.1667ZM53.7499 50.3334H96.9166C102.004 50.3334 106.167 54.4959 106.167 59.5834H44.4999C44.4999 54.4959 48.6624 50.3334 53.7499 50.3334ZM96.9166 99.6668H53.7499C48.6624 99.6668 44.4999 95.5042 44.4999 90.4168V65.7501H106.167V90.4168C106.167 95.5042 102.004 99.6668 96.9166 99.6668ZM69.1666 75.0001C69.1666 76.6959 67.7791 78.0834 66.0833 78.0834H62.9999V90.4168C62.9999 92.1126 61.6124 93.5001 59.9166 93.5001C58.2208 93.5001 56.8333 92.1126 56.8333 90.4168V78.0834H53.7499C52.0541 78.0834 50.6666 76.6959 50.6666 75.0001C50.6666 73.3042 52.0541 71.9167 53.7499 71.9167H66.0833C67.7791 71.9167 69.1666 73.3042 69.1666 75.0001ZM99.9999 75.0001C99.9999 76.6959 98.6124 78.0834 96.9166 78.0834H78.4166C76.7208 78.0834 75.3333 76.6959 75.3333 75.0001C75.3333 73.3042 76.7208 71.9167 78.4166 71.9167H96.9166C98.6124 71.9167 99.9999 73.3042 99.9999 75.0001ZM99.9999 87.3334C99.9999 89.0293 98.6124 90.4168 96.9166 90.4168H78.4166C76.7208 90.4168 75.3333 89.0293 75.3333 87.3334C75.3333 85.6376 76.7208 84.2501 78.4166 84.2501H96.9166C98.6124 84.2501 99.9999 85.6376 99.9999 87.3334Z" fill="white"/>
</g>
<defs>
<clipPath id="clip0_1813_1090">
<rect width="74" height="74" fill="white" transform="translate(38.3333 38)"/>
</clipPath>
</defs>
</svg>
