<svg width="151" height="150" viewBox="0 0 151 150" fill="none" xmlns="http://www.w3.org/2000/svg">
<rect x="0.666748" width="150" height="150" rx="24" fill="white" fill-opacity="0.1"/>
<g clip-path="url(#clip0_1813_1098)">
<path d="M93.6919 81.8358L80.1468 76.0021C77.2577 74.7595 73.9432 74.7595 71.0572 76.0082L57.5984 81.8358C55.3692 82.8008 53.9847 84.9098 53.9817 87.3364C53.9786 89.763 55.3599 91.8751 57.583 92.8463L63.3334 95.3562V103.348C63.3334 106.351 65.0909 109.102 67.8166 110.357C70.1877 111.448 72.827 112 75.6667 112C78.5065 112 81.1458 111.445 83.5231 110.357C86.2426 109.102 88.0001 106.348 88.0001 103.348V95.3315L91.0834 93.9933V102.753C91.0834 104.458 92.4617 105.836 94.1667 105.836C95.8718 105.836 97.2501 104.458 97.2501 102.753C97.2501 102.753 97.2501 87.4998 97.2501 87.3364C97.2501 84.9407 95.8903 82.7793 93.6919 81.8388V81.8358ZM73.5084 81.6693C74.8404 81.0896 76.3759 81.0896 77.7079 81.6631L91.1204 87.1422C91.1204 87.1853 91.0988 87.2192 91.0957 87.2624L77.7295 93.0683C76.3852 93.6511 74.8435 93.6511 73.4992 93.0622L60.0466 87.4967L73.5053 81.6693H73.5084ZM81.8334 103.345C81.8334 103.959 81.4912 104.501 80.9423 104.754C77.8282 106.182 73.5022 106.182 70.3942 104.754C69.8423 104.501 69.5001 103.959 69.5001 103.345V98.0448L71.0356 98.7139C72.494 99.3491 74.0572 99.6667 75.6236 99.6667C77.1807 99.6667 78.7377 99.3522 80.19 98.7201L81.8334 98.0047V103.345ZM60.2501 51.875C60.2501 54.428 58.1781 56.5 55.6251 56.5C53.0721 56.5 51.0001 54.428 51.0001 51.875C51.0001 49.322 53.0721 47.25 55.6251 47.25C58.1781 47.25 60.2501 49.322 60.2501 51.875ZM72.5834 51.875C72.5834 54.428 70.5114 56.5 67.9584 56.5C65.4054 56.5 63.3334 54.428 63.3334 51.875C63.3334 49.322 65.4054 47.25 67.9584 47.25C70.5114 47.25 72.5834 49.322 72.5834 51.875ZM97.2501 38H54.0834C45.5827 38 38.6667 44.9159 38.6667 53.4167V90.4167C38.6667 98.9174 45.5827 105.833 54.0834 105.833C55.7854 105.833 57.1667 104.455 57.1667 102.75C57.1667 101.045 55.7854 99.6667 54.0834 99.6667C48.9836 99.6667 44.8334 95.5165 44.8334 90.4167V65.75H106.5V90.4167C106.5 92.6706 105.68 94.8443 104.191 96.5309C103.065 97.8074 103.185 99.7561 104.465 100.881C105.735 102.007 107.687 101.89 108.816 100.607C111.301 97.7951 112.667 94.1722 112.667 90.4136V53.4167C112.667 44.9159 105.751 38 97.2501 38ZM44.8334 59.5833V53.4167C44.8334 48.3168 48.9836 44.1667 54.0834 44.1667H97.2501C102.35 44.1667 106.5 48.3168 106.5 53.4167V59.5833H44.8334Z" fill="white"/>
</g>
<defs>
<clipPath id="clip0_1813_1098">
<rect width="74" height="74" fill="white" transform="translate(38.6667 38)"/>
</clipPath>
</defs>
</svg>
